<svg xmlns="http://www.w3.org/2000/svg" xmlns:xlink="http://www.w3.org/1999/xlink" width="48" zoomAndPan="magnify" viewBox="0 0 36 36.000001" height="48" preserveAspectRatio="xMidYMid meet" version="1.0"><defs><clipPath id="59c3573bcf"><path d="M 11.613281 5.5625 L 35.511719 5.5625 L 35.511719 29.644531 L 11.613281 29.644531 Z M 11.613281 5.5625 " clip-rule="nonzero"/></clipPath><clipPath id="31210ef58f"><path d="M 0.488281 5.5625 L 24.386719 5.5625 L 24.386719 29.644531 L 0.488281 29.644531 Z M 0.488281 5.5625 " clip-rule="nonzero"/></clipPath></defs><g clip-path="url(#59c3573bcf)"><path fill="#004aad" d="M 23.5625 29.460938 C 20.371094 29.460938 17.371094 28.21875 15.113281 25.960938 C 12.859375 23.707031 11.613281 20.707031 11.613281 17.511719 C 11.613281 14.320312 12.859375 11.320312 15.113281 9.0625 C 17.371094 6.808594 20.371094 5.5625 23.5625 5.5625 C 26.757812 5.5625 29.757812 6.808594 32.011719 9.0625 C 34.269531 11.320312 35.511719 14.320312 35.511719 17.511719 C 35.511719 19.289062 35.015625 20.941406 34.992188 21.015625 C 34.792969 21.664062 34.535156 22.304688 34.230469 22.914062 L 35.398438 28.832031 C 35.421875 28.949219 35.386719 29.070312 35.304688 29.15625 C 35.21875 29.242188 35.101562 29.277344 34.984375 29.257812 L 28.921875 28.195312 C 28.277344 28.519531 27.605469 28.785156 26.917969 28.984375 C 26.851562 29.003906 25.265625 29.460938 23.5625 29.460938 Z M 23.5625 6.285156 C 20.566406 6.285156 17.746094 7.453125 15.625 9.574219 C 13.503906 11.695312 12.335938 14.515625 12.335938 17.511719 C 12.335938 20.511719 13.503906 23.332031 15.625 25.453125 C 17.746094 27.574219 20.566406 28.742188 23.5625 28.742188 C 25.164062 28.742188 26.699219 28.296875 26.714844 28.292969 C 27.398438 28.09375 28.066406 27.824219 28.699219 27.5 C 28.769531 27.460938 28.847656 27.449219 28.925781 27.464844 L 34.589844 28.457031 L 33.496094 22.929688 C 33.480469 22.847656 33.492188 22.765625 33.53125 22.691406 C 33.84375 22.089844 34.101562 21.453125 34.300781 20.804688 C 34.308594 20.78125 34.792969 19.179688 34.792969 17.511719 C 34.792969 14.515625 33.625 11.695312 31.503906 9.574219 C 29.382812 7.453125 26.5625 6.285156 23.5625 6.285156 Z M 23.5625 6.285156 " fill-opacity="1" fill-rule="nonzero"/></g><g clip-path="url(#31210ef58f)"><path fill="#0047a7" d="M 12.4375 29.460938 C 15.628906 29.460938 18.628906 28.21875 20.886719 25.960938 C 23.140625 23.707031 24.386719 20.707031 24.386719 17.511719 C 24.386719 14.320312 23.140625 11.320312 20.886719 9.0625 C 18.628906 6.808594 15.628906 5.5625 12.4375 5.5625 C 9.242188 5.5625 6.242188 6.808594 3.988281 9.0625 C 1.730469 11.320312 0.488281 14.320312 0.488281 17.511719 C 0.488281 19.289062 0.984375 20.941406 1.007812 21.015625 C 1.207031 21.664062 1.464844 22.304688 1.769531 22.914062 L 0.601562 28.832031 C 0.578125 28.949219 0.613281 29.070312 0.695312 29.15625 C 0.78125 29.242188 0.898438 29.277344 1.015625 29.257812 L 7.078125 28.195312 C 7.722656 28.519531 8.394531 28.785156 9.082031 28.984375 C 9.148438 29.003906 10.734375 29.460938 12.4375 29.460938 Z M 12.4375 6.285156 C 15.433594 6.285156 18.253906 7.453125 20.375 9.574219 C 22.496094 11.695312 23.664062 14.515625 23.664062 17.511719 C 23.664062 20.511719 22.496094 23.332031 20.375 25.453125 C 18.253906 27.574219 15.433594 28.742188 12.4375 28.742188 C 10.835938 28.742188 9.300781 28.296875 9.285156 28.292969 C 8.601562 28.09375 7.933594 27.824219 7.300781 27.5 C 7.230469 27.460938 7.152344 27.449219 7.074219 27.464844 L 1.410156 28.457031 L 2.503906 22.929688 C 2.519531 22.847656 2.507812 22.765625 2.46875 22.691406 C 2.15625 22.089844 1.898438 21.453125 1.699219 20.804688 C 1.691406 20.78125 1.207031 19.179688 1.207031 17.511719 C 1.207031 14.515625 2.375 11.695312 4.496094 9.574219 C 6.617188 7.453125 9.4375 6.285156 12.4375 6.285156 Z M 12.4375 6.285156 " fill-opacity="1" fill-rule="nonzero"/></g></svg>